<svg enable-background="new 0 0 313 142" viewBox="0 0 313 142" xmlns="http://www.w3.org/2000/svg" xmlns:xlink="http://www.w3.org/1999/xlink"><clipPath id="a"><path d="m43.266 43.392h40.255v43.376h-40.255z"/></clipPath><clipPath id="b"><path d="m89.875 47.917h180v24.581h-180z"/></clipPath><clipPath id="c"><path d="m0 0h313v142h-313z"/></clipPath><g fill="#fff"><path clip-path="url(#a)" d="m74.636 47.82c-.032-.061-1.955-1.013-1.955-1.013-2.445-.513-6.474-.288-9.283.745h-.01c-2.811-1.033-6.836-1.258-9.282-.745 0 0-1.924.952-1.953 1.013l-2.98 6.576c-.097.183.056.339.225.305 4.53-.86 9.732-1.125 13.993-1.125h.004c4.26 0 9.463.265 13.992 1.125.171.034.322-.122.226-.305zm-11.947 4.735c-3.229-.128-8.801-.128-11.595.872l1.986-4.97 1.353-.724-1.437 4.094c2.911-.55 6.131-.755 9.701.413zm1.362 0v-.315c3.568-1.168 6.79-.963 9.7-.413l-1.444-4.094 1.355.724 1.986 4.97c-2.651-1-8.224-1-11.597-.872"/><path clip-path="url(#a)" d="m81.864 45.362-.02-.008-.127-.029c-5.998-1.283-12.163-1.933-18.324-1.933-6.164 0-12.337.652-18.346 1.937l-.059.012-.056.018c-.961.237-1.667 1.139-1.667 2.182l.002 3.265c0 23.548 14.571 33.101 19.037 35.468.357.19.728.287 1.096.287.37 0 .737-.097 1.091-.29 4.454-2.361 19.029-11.917 19.029-35.465v-3.265c0-1.018-.686-1.912-1.656-2.179m-19.292 39.557c-4.924-2.717-14.813-10.424-17.37-26.224l.12-.025c5.63-1.189 11.43-1.813 17.25-1.868zm15.578-15.144c-.003.004-.006.012-.009.017-1.046 2.167-2.229 4.088-3.475 5.773-.003.003-.003.004-.004.004-1.134 1.533-2.311 2.882-3.482 4.045v-6.37l-3.484-2.318v11.715c-1.295.977-2.488 1.731-3.481 2.278v-16.312l3.481 2.319v-8.107l3.484 2.316v-7.994c1.164.103 2.326.223 3.482.372v9.94l3.479 2.316v-11.73c1.114.19 2.223.393 3.326.626l.119.026c-.69 4.266-1.916 7.937-3.436 11.084m-13.935-9.276v-3.697c1.162.01 2.323.04 3.481.097v5.919zm17.988-9.693c0 2.145-.13 4.169-.363 6.084-12.082-2.552-24.793-2.552-36.892.006-.234-1.918-.364-3.944-.364-6.09l-.002-3.266c0-.443.305-.814.718-.917l.022-.007c5.828-1.247 11.873-1.908 18.071-1.908 6.191 0 12.228.66 18.046 1.903l.014.005c.431.088.752.469.752.924z"/><path clip-path="url(#a)" d="m74.662 67.453-3.482-2.317v8.108l3.482 2.317z"/><path clip-path="url(#a)" d="m55.123 72.561c3.514 0 6.374-2.859 6.374-6.373 0-3.515-2.86-6.374-6.374-6.374s-6.373 2.859-6.373 6.374c0 3.514 2.859 6.373 6.373 6.373m1.16-.927c.491-.531 1.077-1.307 1.52-2.315.614.132 1.14.296 1.571.459-.784.928-1.863 1.595-3.091 1.856m3.573-2.527c-.471-.191-1.061-.39-1.769-.549.188-.593.317-1.248.354-1.969h2.232c-.067.92-.356 1.775-.817 2.518m0-5.839c.461.744.75 1.598.817 2.518h-2.232c-.037-.719-.166-1.377-.354-1.968.711-.161 1.298-.359 1.769-.55m-.482-.672c-.431.164-.957.328-1.571.461-.443-1.011-1.029-1.784-1.52-2.316 1.228.261 2.307.929 3.091 1.855m-3.85-1.483c.434.446 1.01 1.15 1.455 2.088-.449.065-.934.107-1.455.122zm0 3.015c.635-.018 1.226-.074 1.763-.159.182.545.309 1.151.349 1.817h-2.112zm0 2.461h2.112c-.04.665-.167 1.271-.353 1.817-.534-.087-1.124-.14-1.759-.159zm0 2.463c.52.016 1.003.058 1.45.122-.443.935-1.017 1.639-1.45 2.083zm-4.652.726c.431-.163.959-.327 1.573-.46.444 1.01 1.032 1.787 1.524 2.318-1.233-.261-2.312-.929-3.097-1.858m3.848 1.475c-.433-.449-1.003-1.151-1.446-2.08.447-.063.929-.105 1.446-.121zm0-3.006c-.634.019-1.22.072-1.754.157-.186-.544-.314-1.15-.352-1.815h2.106zm0-2.461h-2.106c.038-.665.166-1.271.352-1.817.534.085 1.12.141 1.754.159zm0-2.463c-.517-.015-.999-.057-1.446-.121.443-.93 1.013-1.633 1.446-2.08zm-.751-2.584c-.492.532-1.08 1.306-1.524 2.318-.614-.133-1.142-.299-1.572-.462.785-.927 1.864-1.595 3.096-1.856m-3.58 2.529c.472.191 1.061.389 1.774.55-.19.591-.318 1.249-.355 1.968h-2.235c.065-.92.356-1.775.816-2.518m-.816 3.321h2.235c.037.72.165 1.376.353 1.968-.711.16-1.3.359-1.772.55-.461-.743-.751-1.598-.816-2.518"/><path clip-path="url(#b)" d="m95.023 52.328c0-3.159-.283-3.5-1.963-3.643l-.71-.056c-.171-.114-.114-.626.057-.711 1.649.056 2.616.085 3.811.085 1.139 0 2.106-.029 3.244-.085.17.085.227.597.057.711l-.427.056c-1.678.229-1.735.625-1.735 3.643v10.555c0 2.246-.115 4.209-.654 5.517-.94 2.278-2.959 4.098-5.606 4.098-.34 0-1.222-.029-1.222-.598 0-.484.425-1.31 1.023-1.31.342 0 .684.056 1.054.172.398.113.796.199 1.194.199.598 0 .94-.342 1.139-.74.654-1.338.738-5.604.738-7.141z"/><path clip-path="url(#b)" d="m99.459 59.027c0-4.799 3.601-8.472 8.544-8.472 5.544 0 8.328 4.008 8.328 8.232 0 4.848-3.696 8.375-8.328 8.375-5.327 0-8.544-3.815-8.544-8.135m14.472.504c0-3.959-1.751-8.232-6.335-8.232-2.497 0-5.736 1.705-5.736 6.961 0 3.55 1.728 8.16 6.455 8.16 2.881 0 5.616-2.16 5.616-6.889"/><path clip-path="url(#b)" d="m121.783 59.027c-1.152 0-1.2.049-1.2.77v3.382c0 2.52.12 2.856 1.464 3l.695.073c.145.095.096.527-.047.599-1.297-.049-2.112-.072-3.049-.072-1.031 0-1.847.049-2.783.072-.144-.072-.191-.457-.049-.599l.408-.073c1.344-.24 1.393-.48 1.393-3v-8.64c0-2.52-.168-2.927-1.416-3.024l-.625-.048c-.144-.096-.095-.528.049-.6 1.176.023 1.992.072 3.023.072.937 0 1.752-.023 2.784-.072.144.072.193.504.048.6l-.456.048c-1.391.144-1.439.504-1.439 3.024v2.761c0 .743.048.768 1.2.768h6.864c1.152 0 1.201-.025 1.201-.768v-2.761c0-2.52-.049-2.88-1.465-3.024l-.455-.048c-.145-.096-.098-.528.047-.6 1.103.049 1.92.072 2.904.072.936 0 1.752-.023 2.832-.072.142.072.191.504.049.6l-.506.048c-1.39.144-1.439.504-1.439 3.024v8.64c0 2.52.049 2.832 1.439 3l.576.073c.144.095.096.527-.049.599-1.15-.049-1.966-.072-2.902-.072-.984 0-1.847.023-2.904.072-.145-.072-.192-.457-.047-.599l.455-.073c1.465-.24 1.465-.48 1.465-3v-3.382c0-.721-.049-.77-1.201-.77z"/><path clip-path="url(#b)" d="m150.225 62.699c0 .721 0 3.576.07 4.199-.047.145-.191.264-.455.264-.287-.406-.984-1.246-3.072-3.623l-5.568-6.336c-.647-.744-2.28-2.712-2.784-3.238h-.046c-.098.287-.122.838-.122 1.558v5.233c0 1.127.024 4.248.432 4.966.145.266.625.409 1.225.457l.744.073c.144.191.119.48-.049.599-1.08-.048-1.92-.072-2.807-.072-1.009 0-1.656.024-2.496.072-.168-.119-.191-.457-.049-.599l.649-.073c.551-.072.935-.216 1.057-.48.333-.863.31-3.791.31-4.943v-6.936c0-.673-.023-1.178-.527-1.728-.336-.336-.912-.505-1.489-.577l-.408-.047c-.144-.144-.144-.503.049-.601 1.008.072 2.279.072 2.711.072.385 0 .793-.023 1.105-.072.479 1.225 3.311 4.393 4.104 5.281l2.328 2.615c1.654 1.848 2.83 3.192 3.959 4.344h.049c.096-.119.096-.504.096-1.008v-5.136c0-1.128-.024-4.247-.481-4.968-.144-.216-.527-.36-1.488-.48l-.408-.047c-.168-.144-.143-.529.048-.601 1.104.049 1.92.072 2.833.072 1.031 0 1.654-.023 2.47-.072.194.121.194.457.049.601l-.336.047c-.767.12-1.248.313-1.344.504-.408.864-.359 3.84-.359 4.944z"/><path clip-path="url(#b)" d="m156.568 67.162c-2.018 0-3.289-.623-3.744-.887-.289-.529-.602-2.232-.649-3.359.12-.17.481-.217.577-.072.359 1.222 1.343 3.576 4.127 3.576 2.015 0 3-1.321 3-2.76 0-1.057-.215-2.232-1.969-3.361l-2.279-1.489c-1.2-.791-2.592-2.16-2.592-4.127 0-2.28 1.777-4.127 4.896-4.127.744 0 1.608.144 2.233.311.31.098.646.145.837.145.217.575.434 1.92.434 2.927-.096.145-.48.216-.601.073-.311-1.153-.959-2.713-3.264-2.713-2.352 0-2.856 1.56-2.856 2.666 0 1.39 1.153 2.398 2.041 2.951l1.92 1.199c1.512.936 3 2.328 3 4.608 0 2.64-1.992 4.439-5.111 4.439"/><path clip-path="url(#b)" d="m175.924 57.592c-1.365 0-1.422.055-1.422.908v4.012c0 2.986.141 3.385 1.734 3.557l.827.086c.17.113.113.625-.059.708-1.535-.056-2.502-.083-3.611-.083-1.225 0-2.192.056-3.301.083-.172-.083-.229-.539-.057-.708l.483-.086c1.593-.286 1.65-.571 1.65-3.557v-10.242c0-2.987-.199-3.471-1.678-3.584l-.74-.057c-.17-.113-.113-.626.057-.711 1.394.028 2.361.085 3.586.085 1.109 0 2.076-.028 3.299-.085.171.085.228.598.056.711l-.541.057c-1.648.172-1.705.597-1.705 3.584v3.272c0 .882.057.909 1.422.909h8.137c1.365 0 1.422-.027 1.422-.909v-3.272c0-2.987-.057-3.412-1.737-3.584l-.541-.057c-.17-.113-.113-.626.059-.711 1.306.057 2.275.085 3.441.085 1.11 0 2.078-.028 3.358-.085.17.085.228.598.056.711l-.597.057c-1.649.172-1.707.597-1.707 3.584v10.242c0 2.986.058 3.357 1.707 3.557l.683.086c.17.113.114.625-.058.708-1.364-.056-2.332-.083-3.442-.083-1.166 0-2.189.027-3.441.083-.172-.083-.229-.539-.059-.708l.541-.086c1.737-.286 1.737-.571 1.737-3.557v-4.012c0-.853-.057-.908-1.422-.908z"/><path clip-path="url(#b)" d="m190.025 59.027c0-4.799 3.602-8.472 8.543-8.472 5.545 0 8.328 4.008 8.328 8.232 0 4.848-3.695 8.375-8.328 8.375-5.326 0-8.543-3.815-8.543-8.135m14.471.504c0-3.959-1.75-8.232-6.336-8.232-2.494 0-5.734 1.705-5.734 6.961 0 3.55 1.728 8.16 6.455 8.16 2.881 0 5.615-2.16 5.615-6.889"/><path clip-path="url(#b)" d="m211.24 63.18c0 2.52.049 2.832 1.584 3l.648.072c.145.119.098.528-.048.6-1.368-.049-2.159-.072-3.12-.072-1.007 0-1.871.023-2.927.072-.145-.072-.192-.457-.047-.6l.504-.072c1.39-.191 1.439-.48 1.439-3v-8.855c0-2.041-.049-2.449-1.129-2.569l-.863-.097c-.168-.143-.145-.503.049-.599 1.271-.169 2.76-.193 4.75-.193 1.992 0 3.48.264 4.609.961 1.104.696 1.92 1.944 1.92 3.599 0 2.208-1.367 3.314-2.4 3.817-1.057.504-2.328.719-3.313.719-.168-.07-.168-.431-.023-.478 2.592-.481 3.527-1.946 3.527-4.033 0-2.329-1.367-3.839-3.863-3.839-1.272 0-1.297.094-1.297.864z"/><path clip-path="url(#b)" d="m221.227 54.539c0-2.52-.049-2.904-1.439-3.023l-.602-.048c-.143-.097-.094-.529.049-.601 1.176.049 1.943.072 3.023.072.936 0 1.752-.023 2.785-.072.143.072.192.504.047.601l-.455.048c-1.392.143-1.441.503-1.441 3.023v2.762c0 .455.049.91.314.91.215 0 .502-.143.67-.264.336-.287.961-.912 1.225-1.152l2.592-2.567c.455-.433 1.632-1.657 1.871-1.992.121-.169.17-.289.17-.385 0-.095-.096-.167-.409-.239l-.648-.144c-.168-.169-.145-.48.047-.601.84.049 1.801.072 2.64.072.84 0 1.657-.023 2.375-.072.17.121.194.457.049.601-.623.048-1.558.288-2.23.672-.672.383-2.018 1.511-3.362 2.784l-2.16 2.039c-.336.338-.552.553-.552.744 0 .17.144.361.457.744 2.279 2.615 4.127 4.776 6 6.744.576.576 1.013.889 1.828.985l.463.072c.17.119.121.527-.049.6-.623-.049-1.281-.073-2.41-.073-.983 0-1.825.024-2.928.073-.168-.049-.24-.458-.096-.6l.551-.098c.338-.047.576-.119.576-.238 0-.145-.168-.336-.336-.553-.457-.576-1.08-1.224-1.992-2.256l-1.92-2.16c-1.367-1.535-1.752-2.015-2.328-2.015-.359 0-.408.312-.408 1.152v3.096c0 2.519.049 2.855 1.392 3l.649.072c.142.096.096.527-.049.6-1.176-.049-1.992-.073-2.928-.073-.984 0-1.799.024-2.783.073-.144-.073-.193-.432-.049-.6l.481-.072c1.271-.192 1.32-.481 1.32-3z"/><path clip-path="url(#b)" d="m237.699 54.588c0-2.544-.047-2.953-1.465-3.072l-.598-.048c-.144-.097-.097-.528.047-.601 1.2.049 2.016.073 3.024.073.961 0 1.777-.024 2.976-.073.145.073.192.504.049.601l-.601.048c-1.416.119-1.463.528-1.463 3.072v8.543c0 2.545.047 2.881 1.463 3.049l.601.072c.143.096.096.527-.049.6-1.199-.049-2.015-.073-2.976-.073-1.008 0-1.733.024-2.932.073-.144-.073-.191-.457-.047-.6l.506-.072c1.418-.168 1.465-.504 1.465-3.049z"/><path clip-path="url(#b)" d="m258.459 62.699c0 .721 0 3.576.074 4.199-.049.145-.193.264-.457.264-.287-.406-.984-1.246-3.072-3.623l-5.568-6.336c-.647-.744-2.28-2.712-2.784-3.238h-.047c-.097.287-.121.838-.121 1.558v5.233c0 1.127.024 4.248.432 4.966.145.266.625.409 1.225.457l.744.073c.142.191.119.48-.049.599-1.08-.048-1.92-.072-2.807-.072-1.008 0-1.656.024-2.496.072-.168-.119-.193-.457-.049-.599l.649-.073c.551-.072.935-.216 1.056-.48.336-.863.311-3.791.311-4.943v-6.936c0-.673-.023-1.178-.527-1.728-.336-.336-.912-.505-1.489-.577l-.408-.047c-.144-.144-.144-.503.049-.601 1.008.072 2.279.072 2.711.072.385 0 .793-.023 1.105-.072.481 1.225 3.311 4.393 4.102 5.281l2.33 2.615c1.656 1.848 2.83 3.192 3.959 4.344h.049c.096-.119.096-.504.096-1.008v-5.136c0-1.128-.024-4.247-.481-4.968-.144-.216-.527-.36-1.486-.48l-.408-.047c-.17-.144-.145-.529.046-.601 1.104.049 1.92.072 2.832.072 1.034 0 1.657-.023 2.471-.072.194.121.194.457.049.601l-.336.047c-.768.12-1.248.313-1.344.504-.408.864-.361 3.84-.361 4.944z"/><path clip-path="url(#b)" d="m264.764 67.162c-2.018 0-3.289-.623-3.746-.887-.287-.529-.6-2.232-.649-3.359.122-.17.483-.217.577-.072.361 1.222 1.345 3.576 4.129 3.576 2.015 0 3-1.321 3-2.76 0-1.057-.217-2.232-1.969-3.361l-2.278-1.489c-1.201-.791-2.593-2.16-2.593-4.127 0-2.28 1.775-4.127 4.896-4.127.744 0 1.608.144 2.233.311.312.098.646.145.837.145.217.575.434 1.92.434 2.927-.098.145-.48.216-.601.073-.311-1.153-.959-2.713-3.262-2.713-2.354 0-2.858 1.56-2.858 2.666 0 1.39 1.153 2.398 2.039 2.951l1.922 1.199c1.512.936 3 2.328 3 4.608 0 2.64-1.992 4.439-5.111 4.439"/><path clip-path="url(#c)" d="m124.306 79.369c0-1.302-.024-1.501-.744-1.562l-.311-.026c-.074-.049-.049-.272.025-.309.608.024 1.006.037 1.563.037.484 0 .905-.013 1.44-.037.074.037.098.26.024.309l-.235.026c-.72.074-.745.26-.745 1.562v1.427c0 .236.025.471.162.471.111 0 .259-.074.347-.136.174-.149.496-.471.633-.596l1.34-1.327c.234-.223.843-.856.967-1.029.062-.087.087-.15.087-.199s-.05-.087-.211-.124l-.335-.075c-.087-.087-.074-.248.025-.309.434.024.93.037 1.364.037.435 0 .857-.013 1.228-.037.088.061.1.235.025.309-.322.026-.806.15-1.154.348-.347.198-1.041.781-1.736 1.439l-1.116 1.054c-.174.174-.287.286-.287.385 0 .087.076.186.237.384 1.178 1.353 2.134 2.469 3.101 3.487.297.297.571.459.993.508l.334.038c.087.061.062.272-.024.309-.322-.024-.807-.037-1.39-.037-.508 0-.942.013-1.513.037-.087-.024-.124-.235-.05-.309l.285-.05c.174-.026.299-.063.299-.124 0-.075-.088-.174-.174-.285-.236-.298-.558-.633-1.03-1.167l-.992-1.116c-.708-.794-.906-1.042-1.204-1.042-.186 0-.211.161-.211.595v1.601c0 1.302.025 1.475.72 1.55l.334.038c.075.049.05.272-.024.309-.609-.024-1.03-.037-1.514-.037-.509 0-.93.013-1.438.037-.074-.037-.1-.223-.026-.309l.248-.038c.659-.099.683-.248.683-1.55z"/><path clip-path="url(#c)" d="m133.294 79.382c0-1.179-.037-1.39-.544-1.452l-.398-.049c-.087-.062-.087-.261.013-.311.694-.061 1.551-.099 2.765-.099.77 0 1.502.062 2.073.372.595.311 1.029.869 1.029 1.737 0 1.179-.93 1.824-1.551 2.072-.061.074 0 .198.063.298.992 1.6 1.65 2.593 2.494 3.3.21.185.52.322.855.346.063.026.074.124.012.174-.111.037-.31.063-.545.063-1.055 0-1.687-.311-2.568-1.564-.323-.459-.831-1.314-1.216-1.873-.187-.273-.384-.397-.881-.397-.558 0-.583.012-.583.273v1.564c0 1.301.025 1.451.744 1.549l.261.039c.075.061.05.272-.025.309-.558-.024-.98-.037-1.476-.037-.522 0-.968.013-1.551.037-.074-.037-.099-.223-.025-.309l.31-.039c.72-.086.744-.248.744-1.549zm1.018 1.774c0 .223 0 .359.037.409.037.037.224.062.857.062.446 0 .918-.049 1.277-.323.335-.26.62-.694.62-1.538 0-.98-.607-1.91-1.984-1.91-.77 0-.807.049-.807.397z"/><path clip-path="url(#c)" d="m141.914 79.395c0-1.315-.025-1.526-.758-1.588l-.309-.025c-.075-.049-.05-.273.024-.31.621.025 1.043.037 1.564.037.496 0 .917-.012 1.538-.037.074.037.099.261.025.31l-.311.025c-.732.062-.756.273-.756 1.588v4.416c0 1.315.024 1.488.756 1.575l.311.038c.074.049.049.273-.025.31-.621-.025-1.042-.037-1.538-.037-.521 0-.943.012-1.564.037-.074-.037-.099-.235-.024-.31l.309-.038c.733-.087.758-.26.758-1.575z"/><path clip-path="url(#c)" d="m146.725 79.369c0-1.29-.025-1.476-.758-1.562l-.197-.026c-.075-.049-.051-.272.024-.309.534.024.955.037 1.464.037h2.332c.794 0 1.526 0 1.675-.037.074.21.149 1.103.198 1.649-.049.075-.248.1-.31.025-.186-.583-.297-1.017-.943-1.178-.26-.063-.657-.075-1.203-.075h-.893c-.372 0-.372.025-.372.497v2.48c0 .348.038.348.409.348h.72c.52 0 .905-.025 1.054-.075.15-.049.236-.124.298-.434l.1-.508c.061-.075.272-.075.322.012 0 .298-.05.782-.05 1.253 0 .447.05.918.05 1.191-.05.087-.261.087-.322.012l-.113-.484c-.049-.223-.135-.409-.383-.471-.174-.05-.473-.062-.956-.062h-.72c-.371 0-.409.012-.409.335v1.749c0 .657.038 1.079.235 1.29.149.149.41.285 1.502.285.955 0 1.314-.049 1.588-.185.222-.124.557-.559.881-1.204.086-.062.259-.025.309.087-.087.434-.397 1.389-.557 1.724-1.118-.024-2.221-.037-3.326-.037h-1.116c-.533 0-.955.013-1.687.037-.075-.037-.1-.235-.026-.309l.41-.038c.708-.062.77-.248.77-1.55z"/><path clip-path="url(#c)" d="m160.715 84.431c0 .496.074.794.297.881.037.037.037.112-.012.149-.148 0-.373.049-.607.112-.658.173-1.551.322-2.221.322-1.477 0-2.829-.409-3.784-1.377-.744-.744-1.142-1.725-1.142-2.816 0-1.054.348-2.122 1.117-2.94.831-.868 2.059-1.451 3.932-1.451.707 0 1.365.136 1.576.185.236.05.62.137.77.113 0 .409.074 1.053.185 1.799-.037.098-.26.111-.335.037-.346-1.34-1.278-1.762-2.543-1.762-2.407 0-3.462 1.712-3.462 3.572 0 2.382 1.229 4.255 3.723 4.255.769 0 1.228-.161 1.364-.372.062-.087.124-.31.124-.707v-.496c0-1.042-.037-1.116-.806-1.203l-.545-.063c-.1-.049-.088-.272 0-.309.359.024 1.041.037 1.773.037.485 0 .906-.013 1.315-.037.088.05.099.235.012.309l-.198.026c-.521.061-.533.409-.533 1.042z"/><path clip-path="url(#c)" d="m163.824 79.369c0-1.29-.025-1.476-.758-1.562l-.197-.026c-.075-.049-.051-.272.024-.309.534.024.955.037 1.464.037h2.332c.794 0 1.526 0 1.675-.037.074.21.149 1.103.198 1.649-.049.075-.248.1-.31.025-.186-.583-.297-1.017-.943-1.178-.26-.063-.657-.075-1.203-.075h-.893c-.372 0-.372.025-.372.497v2.48c0 .348.038.348.409.348h.72c.52 0 .905-.025 1.054-.075.15-.049.236-.124.298-.434l.1-.508c.061-.075.272-.075.322.012 0 .298-.05.782-.05 1.253 0 .447.05.918.05 1.191-.05.087-.261.087-.322.012l-.113-.484c-.049-.223-.135-.409-.383-.471-.174-.05-.473-.062-.956-.062h-.72c-.371 0-.409.012-.409.335v1.749c0 .657.038 1.079.235 1.29.149.149.41.285 1.502.285.955 0 1.314-.049 1.588-.185.222-.124.557-.559.881-1.204.086-.062.259-.025.309.087-.087.434-.397 1.389-.557 1.724-1.118-.024-2.221-.037-3.326-.037h-1.116c-.533 0-.955.013-1.687.037-.075-.037-.1-.235-.026-.309l.41-.038c.708-.062.77-.248.77-1.55z"/><path clip-path="url(#c)" d="m171.685 79.382c0-1.179-.037-1.39-.545-1.452l-.398-.049c-.086-.062-.086-.261.014-.311.693-.061 1.55-.099 2.765-.099.77 0 1.501.062 2.073.372.594.311 1.029.869 1.029 1.737 0 1.179-.931 1.824-1.551 2.072-.062.074 0 .198.063.298.992 1.6 1.649 2.593 2.493 3.3.211.185.52.322.856.346.062.026.074.124.012.174-.111.037-.311.063-.546.063-1.054 0-1.686-.311-2.567-1.564-.324-.459-.832-1.314-1.217-1.873-.186-.273-.384-.397-.881-.397-.558 0-.582.012-.582.273v1.564c0 1.301.024 1.451.744 1.549l.26.039c.075.061.051.272-.025.309-.557-.024-.979-.037-1.475-.037-.522 0-.969.013-1.551.037-.074-.037-.099-.223-.025-.309l.31-.039c.719-.086.744-.248.744-1.549zm1.018 1.774c0 .223 0 .359.037.409.037.037.223.062.856.062.447 0 .918-.049 1.277-.323.336-.26.621-.694.621-1.538 0-.98-.607-1.91-1.984-1.91-.77 0-.807.049-.807.397z"/><path clip-path="url(#c)" d="m185.215 85.895c-1.042 0-1.699-.322-1.936-.459-.148-.272-.31-1.153-.334-1.736.062-.087.249-.113.297-.037.187.632.696 1.847 2.134 1.847 1.042 0 1.551-.681 1.551-1.426 0-.545-.112-1.154-1.017-1.737l-1.179-.768c-.62-.411-1.34-1.118-1.34-2.134 0-1.179.918-2.134 2.531-2.134.385 0 .831.074 1.154.161.16.05.334.074.434.074.111.298.223.993.223 1.514-.049.074-.248.111-.31.037-.161-.596-.496-1.402-1.687-1.402-1.216 0-1.476.806-1.476 1.378 0 .718.596 1.24 1.055 1.525l.992.62c.781.485 1.551 1.203 1.551 2.382 0 1.365-1.03 2.295-2.643 2.295"/><path clip-path="url(#c)" d="m191.203 78.364c.906-.707 2.06-1.054 3.35-1.054.67 0 1.613.136 2.195.298.149.037.236.062.348.049.011.286.074 1.067.173 1.824-.062.087-.248.099-.335.025-.186-.844-.745-1.812-2.543-1.812-1.898 0-3.51 1.204-3.51 3.772 0 2.605 1.65 4.044 3.683 4.044 1.602 0 2.309-1.042 2.594-1.774.086-.062.273-.037.322.05-.087.644-.41 1.464-.595 1.699-.149.025-.298.074-.434.124-.273.1-1.166.285-1.961.285-1.116 0-2.183-.222-3.088-.831-.993-.682-1.761-1.811-1.761-3.411 0-1.377.619-2.556 1.562-3.288"/><path clip-path="url(#c)" d="m201.57 81.689c-.596 0-.621.024-.621.396v1.75c0 1.302.062 1.476.758 1.55l.359.038c.074.049.05.273-.025.31-.67-.024-1.092-.037-1.575-.037-.534 0-.956.024-1.439.037-.074-.037-.1-.235-.025-.31l.211-.038c.695-.124.719-.248.719-1.55v-4.466c0-1.302-.087-1.513-.731-1.563l-.323-.025c-.075-.049-.05-.273.024-.31.608.013 1.03.037 1.564.037.483 0 .905-.012 1.439-.037.074.037.099.261.024.31l-.235.025c-.72.074-.745.261-.745 1.563v1.426c0 .385.025.398.621.398h3.548c.595 0 .62-.013.62-.398v-1.426c0-1.302-.025-1.489-.757-1.563l-.235-.025c-.074-.049-.05-.273.024-.31.571.025.993.037 1.501.037.485 0 .906-.012 1.465-.037.074.037.099.261.023.31l-.259.025c-.72.074-.744.261-.744 1.563v4.466c0 1.302.024 1.463.744 1.55l.298.038c.074.049.049.273-.025.31-.596-.024-1.017-.037-1.502-.037-.508 0-.955.013-1.501.037-.074-.037-.098-.235-.024-.31l.235-.038c.757-.124.757-.248.757-1.55v-1.75c0-.372-.025-.396-.62-.396z"/><path clip-path="url(#c)" d="m209.394 81.689c0-2.481 1.86-4.379 4.416-4.379 2.866 0 4.304 2.072 4.304 4.255 0 2.506-1.91 4.329-4.304 4.329-2.754 0-4.416-1.972-4.416-4.205m7.48.261c0-2.047-.905-4.256-3.275-4.256-1.29 0-2.965.881-2.965 3.598 0 1.836.893 4.218 3.337 4.218 1.488 0 2.903-1.117 2.903-3.56"/><path clip-path="url(#c)" d="m219.872 81.689c0-2.481 1.861-4.379 4.416-4.379 2.865 0 4.304 2.072 4.304 4.255 0 2.506-1.91 4.329-4.304 4.329-2.754 0-4.416-1.972-4.416-4.205m7.48.261c0-2.047-.906-4.256-3.275-4.256-1.29 0-2.965.881-2.965 3.598 0 1.836.893 4.218 3.338 4.218 1.488 0 2.902-1.117 2.902-3.56"/><path clip-path="url(#c)" d="m231.268 79.369c0-1.302-.025-1.501-.807-1.562l-.31-.026c-.074-.049-.049-.272.025-.309.695.024 1.116.037 1.613.037.483 0 .905-.013 1.526-.037.074.037.099.26.024.309l-.298.026c-.732.061-.756.26-.756 1.562v4.317c0 .782.038 1.105.26 1.34.137.137.372.285 1.352.285 1.055 0 1.315-.049 1.514-.161.248-.148.57-.595.819-1.228.074-.062.309-.012.309.075 0 .136-.347 1.401-.52 1.736-.633-.024-1.812-.037-3.089-.037h-1.141c-.521 0-.918.013-1.613.037-.074-.037-.099-.235-.025-.309l.373-.038c.719-.075.744-.248.744-1.55z"/><path clip-path="url(#c)" d="m122.999 95.688c-.037.681-.398 1.873-1.316 2.815-.768.794-1.438.857-1.773.857-.794 0-1.315-.583-1.24-1.651.049-.768.508-1.971 1.351-2.778.646-.62 1.203-.807 1.712-.807.881 0 1.316.657 1.266 1.564m-2.258-.596c-.72.968-1.203 2.443-1.241 3.102-.025.433.149.794.51.794.272 0 .582-.113.979-.646.546-.731 1.129-2.369 1.153-3.026.013-.385-.061-.82-.496-.82-.248 0-.545.113-.905.596"/><path clip-path="url(#c)" d="m126.594 94.757c-.074.211-.174.607-.322 1.153-.372 1.39-.707 2.581-1.104 3.946-.323 1.116-.732 1.749-.98 1.997-.186.174-.757.67-1.489.67-.669 0-.906-.422-.906-.608 0-.248.149-.459.285-.558.1-.075.211-.038.286.049.298.31.669.509.943.509.248 0 .508-.087.794-1.042.57-1.96 1.005-4.094 1.6-6.116h-1.03c-.124-.111-.074-.348.087-.459h1.066c.324-1.116.659-2.084 1.391-2.952.619-.733 1.265-1.03 1.984-1.03.459 0 .956.323.956.819 0 .322-.335.707-.534.707-.111 0-.162-.112-.173-.199-.038-.682-.385-.906-.696-.906-.272 0-.607.249-.892.67-.571.831-.819 1.712-1.155 2.891h1.551c.088.137.063.322-.123.459z"/><path clip-path="url(#c)" d="m136.664 96.307c-.087-.273-.137-.31-.509-.31h-1.874c-.309 0-.384.037-.47.298l-.434 1.303c-.187.558-.274.893-.274 1.029 0 .149.063.223.36.248l.41.038c.086.061.086.26-.025.31-.323-.025-.707-.025-1.29-.038-.41 0-.857.025-1.191.038-.075-.05-.099-.249-.025-.31l.409-.038c.298-.025.571-.161.745-.608.223-.57.57-1.377 1.092-2.766l1.265-3.35c.173-.446.248-.681.21-.881.298-.087.509-.309.646-.47.074 0 .16.024.185.111.162.546.36 1.116.546 1.662l1.701 4.987c.359 1.067.52 1.253 1.053 1.315l.335.038c.087.061.063.26 0 .31-.508-.025-.943-.038-1.501-.038-.594 0-1.067.025-1.426.038-.1-.05-.112-.249-.025-.31l.359-.038c.261-.025.435-.099.435-.223 0-.136-.062-.36-.162-.658zm-2.457-1.104c-.099.285-.086.298.261.298h1.526c.359 0 .385-.05.273-.385l-.67-2.021c-.099-.298-.211-.633-.286-.783h-.024c-.037.063-.162.361-.298.733z"/><path clip-path="url(#c)" d="m141.547 92.872c0-1.179-.037-1.39-.545-1.452l-.397-.049c-.088-.062-.088-.261.012-.311.695-.061 1.551-.099 2.766-.099.769 0 1.501.062 2.072.372.595.31 1.03.869 1.03 1.737 0 1.179-.931 1.824-1.551 2.072-.061.074 0 .198.062.298.992 1.6 1.65 2.593 2.494 3.3.211.185.521.322.855.346.063.026.074.124.013.174-.112.037-.31.063-.546.063-1.055 0-1.687-.311-2.568-1.564-.323-.459-.83-1.314-1.215-1.873-.187-.272-.385-.397-.881-.397-.559 0-.584.012-.584.273v1.564c0 1.301.025 1.451.745 1.549l.261.039c.074.061.049.272-.026.309-.558-.024-.98-.037-1.476-.037-.521 0-.967.013-1.551.037-.074-.037-.099-.223-.024-.309l.31-.039c.72-.085.744-.248.744-1.549zm1.017 1.774c0 .223 0 .359.038.409.037.037.224.062.857.062.445 0 .917-.049 1.277-.323.334-.26.62-.694.62-1.538 0-.98-.608-1.91-1.985-1.91-.769 0-.807.049-.807.397z"/><path clip-path="url(#c)" d="m152.585 97.325c0 1.302.024 1.488.745 1.55l.397.038c.074.049.049.272-.026.309-.707-.024-1.129-.037-1.625-.037s-.929.013-1.724.037c-.075-.037-.099-.248 0-.309l.447-.038c.707-.062.769-.248.769-1.55v-5.546c0-.385 0-.396-.373-.396h-.681c-.533 0-1.216.024-1.526.309-.299.274-.422.546-.558.857-.1.074-.274.012-.323-.087.198-.559.384-1.353.471-1.849.037-.024.199-.037.236 0 .075.398.484.385 1.055.385h5.024c.67 0 .781-.025.967-.348.062-.024.199-.012.224.037-.137.509-.224 1.514-.186 1.886-.05.1-.261.1-.324.025-.037-.31-.123-.769-.309-.906-.285-.211-.757-.309-1.439-.309h-.881c-.373 0-.36.011-.36.421z"/><path clip-path="url(#c)" d="m159.455 99.384c-1.043 0-1.7-.322-1.936-.459-.148-.272-.31-1.153-.335-1.736.062-.087.249-.113.298-.037.186.632.695 1.847 2.133 1.847 1.043 0 1.551-.681 1.551-1.426 0-.545-.111-1.154-1.017-1.737l-1.178-.768c-.62-.411-1.34-1.118-1.34-2.134 0-1.179.918-2.134 2.531-2.134.385 0 .83.074 1.153.161.161.05.335.074.435.074.111.298.223.993.223 1.514-.049.074-.248.111-.311.037-.16-.596-.496-1.402-1.686-1.402-1.216 0-1.476.806-1.476 1.378 0 .718.595 1.24 1.054 1.525l.993.62c.781.485 1.551 1.203 1.551 2.382 0 1.365-1.031 2.295-2.643 2.295"/><path clip-path="url(#c)" d="m171.521 91.78c0 .273-.211.496-.472.496-.222 0-.297-.149-.347-.372-.038-.162-.199-.36-.447-.36-.235 0-.509.112-.805.397-.51.484-.622 1.166-.622 1.576 0 .248.026.433.075.533.162-.161.547-.435 1.017-.435.819 0 1.08.583 1.08 1.031 0 .657-.521 1.029-1.08 1.029-.62 0-1.054-.396-1.24-.818-.174.248-.322.644-.322 1.264 0 1.08.83 2.457 2.84 2.457.757 0 1.452-.249 1.948-.632.583-.448 1.153-1.34 1.153-2.295 0-.794-.198-1.216-.272-1.303-.075-.1-.324-.174-.82-.174-.47 0-.918.273-.918.844 0 .235.163.346.248.346.088 0 .137-.048.2-.161.074-.111.148-.235.335-.235.223 0 .383.174.383.396 0 .335-.334.509-.669.509-.558 0-.893-.446-.893-.892 0-.261.087-.559.322-.82.348-.409.992-.508 1.34-.508.248 0 .496.012 1.018.012.595 0 1.847-.012 1.847-1.314 0-.745-.644-1.005-.955-1.005-.185 0-.248.173-.248.223 0 .062.026.112.125.186s.26.186.26.409c0 .372-.274.522-.533.522-.348 0-.608-.286-.608-.646 0-.459.347-.992 1.078-.992.684 0 1.34.608 1.34 1.563 0 .558-.197.906-.508 1.204-.595.557-1.65.508-1.798.508-.137 0-.162.049-.112.21.037.113.334.72.334 1.453 0 1.649-1.451 3.374-3.646 3.374-2.593 0-3.338-1.799-3.338-3.015 0-.707.262-1.401.695-1.923-.062-.198-.111-.459-.111-.844 0-.632.223-1.302.62-1.786.422-.521 1.042-.781 1.513-.781.633 0 .993.372.993.769m-2.506 2.605c.124.434.446.794.942.794.323 0 .596-.198.596-.533 0-.311-.223-.658-.695-.658-.446 0-.781.31-.843.397"/><path clip-path="url(#c)" d="m183.051 99.384c-1.041 0-1.699-.322-1.935-.459-.149-.272-.31-1.153-.335-1.736.063-.087.249-.113.297-.037.187.632.696 1.847 2.135 1.847 1.041 0 1.551-.681 1.551-1.426 0-.545-.112-1.154-1.018-1.737l-1.178-.768c-.621-.411-1.34-1.118-1.34-2.134 0-1.179.918-2.134 2.53-2.134.385 0 .832.074 1.154.161.161.05.335.074.434.074.112.298.224.993.224 1.514-.05.074-.248.111-.31.037-.162-.596-.496-1.402-1.688-1.402-1.215 0-1.476.806-1.476 1.378 0 .718.596 1.24 1.055 1.525l.992.62c.781.485 1.551 1.203 1.551 2.382 0 1.365-1.03 2.295-2.643 2.295"/><path clip-path="url(#c)" d="m188.742 91.854c.906-.707 2.06-1.054 3.35-1.054.67 0 1.613.136 2.196.298.149.037.235.062.347.049.012.286.074 1.067.173 1.824-.061.087-.248.099-.334.025-.186-.844-.745-1.812-2.544-1.812-1.897 0-3.51 1.204-3.51 3.772 0 2.605 1.65 4.044 3.684 4.044 1.601 0 2.308-1.042 2.593-1.774.087-.062.274-.037.322.05-.086.644-.409 1.464-.595 1.699-.149.025-.297.074-.434.124-.273.1-1.166.285-1.96.285-1.116 0-2.184-.222-3.089-.831-.992-.682-1.761-1.811-1.761-3.411 0-1.377.62-2.556 1.562-3.288"/><path clip-path="url(#c)" d="m197.472 92.884c0-1.315-.024-1.526-.757-1.588l-.31-.025c-.075-.049-.049-.273.025-.31.62.025 1.042.037 1.563.037.496 0 .917-.012 1.539-.037.074.037.099.261.024.31l-.31.025c-.732.062-.757.273-.757 1.588v4.416c0 1.315.025 1.489.757 1.575l.31.038c.075.049.05.273-.024.31-.622-.025-1.043-.037-1.539-.037-.521 0-.943.012-1.563.037-.074-.037-.1-.235-.025-.31l.31-.038c.733-.086.757-.26.757-1.575z"/><path clip-path="url(#c)" d="m202.283 92.858c0-1.29-.025-1.476-.757-1.562l-.198-.026c-.074-.049-.05-.272.025-.309.534.024.955.037 1.463.037h2.332c.795 0 1.527 0 1.676-.037.074.21.148 1.103.197 1.649-.049.075-.248.1-.309.025-.187-.583-.298-1.017-.943-1.178-.26-.063-.658-.075-1.203-.075h-.893c-.372 0-.372.025-.372.497v2.48c0 .348.037.348.409.348h.719c.521 0 .906-.025 1.055-.075.149-.049.236-.124.297-.434l.1-.508c.062-.075.273-.075.322.012 0 .298-.049.782-.049 1.253 0 .447.049.918.049 1.191-.049.087-.26.087-.322.012l-.112-.484c-.049-.223-.136-.409-.384-.471-.174-.05-.472-.062-.956-.062h-.719c-.372 0-.409.012-.409.335v1.749c0 .657.037 1.079.235 1.29.149.149.409.285 1.501.285.955 0 1.314-.049 1.588-.185.223-.124.558-.559.881-1.204.087-.062.26-.025.31.087-.088.434-.397 1.389-.558 1.724-1.118-.024-2.221-.037-3.325-.037h-1.117c-.533 0-.955.013-1.687.037-.075-.037-.099-.235-.025-.309l.409-.038c.708-.062.77-.248.77-1.55z"/><path clip-path="url(#c)" d="m216.819 97.076c0 .373 0 1.849.037 2.172-.024.074-.099.136-.235.136-.15-.211-.51-.645-1.588-1.873l-2.879-3.276c-.334-.384-1.178-1.401-1.439-1.674h-.024c-.051.149-.062.434-.062.806v2.705c0 .583.011 2.195.222 2.567.075.137.323.211.633.236l.385.038c.074.099.062.248-.025.309-.558-.024-.993-.037-1.452-.037-.52 0-.855.013-1.289.037-.088-.061-.099-.235-.025-.309l.335-.038c.285-.037.483-.112.546-.248.173-.447.161-1.96.161-2.555v-3.586c0-.347-.013-.607-.273-.892-.174-.174-.471-.261-.769-.298l-.211-.026c-.074-.074-.074-.259.025-.309.521.037 1.178.037 1.402.037.198 0 .409-.013.571-.037.248.633 1.711 2.269 2.121 2.729l1.203 1.352c.856.955 1.463 1.65 2.047 2.245h.024c.05-.062.05-.26.05-.521v-2.655c0-.583-.012-2.195-.248-2.567-.074-.112-.273-.187-.769-.248l-.211-.026c-.086-.074-.075-.272.025-.309.57.024.992.037 1.463.037.534 0 .856-.013 1.278-.037.1.061.1.235.025.309l-.174.026c-.397.061-.645.161-.693.26-.211.447-.187 1.985-.187 2.555z"/><path clip-path="url(#c)" d="m220.66 91.854c.906-.707 2.06-1.054 3.35-1.054.67 0 1.613.136 2.195.298.149.037.236.062.348.049.011.286.074 1.067.173 1.824-.062.087-.248.099-.335.025-.186-.844-.745-1.812-2.543-1.812-1.898 0-3.51 1.204-3.51 3.772 0 2.605 1.65 4.044 3.683 4.044 1.602 0 2.309-1.042 2.594-1.774.086-.062.273-.037.322.05-.087.644-.41 1.464-.595 1.699-.149.025-.298.074-.434.124-.273.1-1.166.285-1.961.285-1.116 0-2.183-.222-3.088-.831-.993-.682-1.761-1.811-1.761-3.411 0-1.377.619-2.556 1.562-3.288"/><path clip-path="url(#c)" d="m229.39 92.858c0-1.29-.024-1.476-.757-1.562l-.198-.026c-.075-.049-.05-.272.024-.309.534.024.955.037 1.464.037h2.333c.793 0 1.526 0 1.674-.037.074.21.149 1.103.199 1.649-.05.075-.248.1-.31.025-.186-.583-.298-1.017-.944-1.178-.259-.063-.656-.075-1.203-.075h-.892c-.373 0-.373.025-.373.497v2.48c0 .348.038.348.41.348h.719c.521 0 .906-.025 1.054-.075.15-.049.237-.124.299-.434l.099-.508c.061-.075.272-.075.322.012 0 .298-.05.782-.05 1.253 0 .447.05.918.05 1.191-.05.087-.261.087-.322.012l-.113-.484c-.048-.223-.135-.409-.383-.471-.174-.05-.472-.062-.956-.062h-.719c-.372 0-.41.012-.41.335v1.749c0 .657.038 1.079.236 1.29.148.149.409.285 1.501.285.955 0 1.315-.049 1.588-.185.223-.124.557-.559.881-1.204.087-.062.26-.025.309.087-.086.434-.396 1.389-.557 1.724-1.117-.024-2.221-.037-3.326-.037h-1.116c-.533 0-.955.013-1.686.037-.075-.037-.1-.235-.026-.309l.41-.038c.707-.062.769-.248.769-1.55z"/><path clip-path="url(#c)" d="m238.442 99.384c-1.042 0-1.7-.322-1.935-.459-.149-.272-.31-1.153-.336-1.736.063-.087.249-.113.298-.037.187.632.695 1.847 2.134 1.847 1.042 0 1.551-.681 1.551-1.426 0-.545-.111-1.154-1.018-1.737l-1.177-.768c-.621-.411-1.34-1.118-1.34-2.134 0-1.179.918-2.134 2.53-2.134.385 0 .831.074 1.153.161.162.05.336.074.435.074.112.298.224.993.224 1.514-.05.074-.248.111-.311.037-.161-.596-.496-1.402-1.687-1.402-1.215 0-1.476.806-1.476 1.378 0 .718.595 1.24 1.054 1.525l.993.62c.781.485 1.551 1.203 1.551 2.382 0 1.365-1.031 2.295-2.643 2.295"/></g></svg>